<svg width="760" height="192" viewBox="0 0 760 192" fill="none" xmlns="http://www.w3.org/2000/svg">
<path d="M65.3011 24.8436H468.817L403.883 170.419H0.367188L65.3011 24.8436Z" fill="#1B1B1B"/>
<path d="M98.7608 141.896C90.3981 141.896 82.7181 139.933 75.7208 136.008C68.7235 132.083 63.1768 126.664 59.0808 119.752C54.9848 112.755 52.9368 104.861 52.9368 96.072C52.9368 87.368 54.9848 79.56 59.0808 72.648C63.1768 65.6507 68.7235 60.1893 75.7208 56.264C82.7181 52.3387 90.3981 50.376 98.7608 50.376C107.209 50.376 114.889 52.3387 121.801 56.264C128.798 60.1893 134.302 65.6507 138.313 72.648C142.409 79.56 144.457 87.368 144.457 96.072C144.457 104.861 142.409 112.755 138.313 119.752C134.302 126.664 128.798 132.083 121.801 136.008C114.803 139.933 107.123 141.896 98.7608 141.896ZM98.7608 125.896C104.137 125.896 108.873 124.701 112.969 122.312C117.065 119.837 120.265 116.339 122.569 111.816C124.873 107.293 126.025 102.045 126.025 96.072C126.025 90.0987 124.873 84.8933 122.569 80.456C120.265 75.9333 117.065 72.4773 112.969 70.088C108.873 67.6987 104.137 66.504 98.7608 66.504C93.3848 66.504 88.6061 67.6987 84.4248 70.088C80.3288 72.4773 77.1288 75.9333 74.8248 80.456C72.5208 84.8933 71.3688 90.0987 71.3688 96.072C71.3688 102.045 72.5208 107.293 74.8248 111.816C77.1288 116.339 80.3288 119.837 84.4248 122.312C88.6061 124.701 93.3848 125.896 98.7608 125.896ZM175.709 81.096C178.013 77.3413 180.999 74.3973 184.669 72.264C188.423 70.1307 192.69 69.064 197.469 69.064V87.88H192.733C187.101 87.88 182.834 89.2027 179.933 91.848C177.117 94.4933 175.709 99.1013 175.709 105.672V141H157.789V70.088H175.709V81.096ZM204.931 105.288C204.931 98.12 206.339 91.7627 209.155 86.216C212.056 80.6693 215.981 76.4027 220.931 73.416C225.88 70.4293 231.384 68.936 237.443 68.936C242.051 68.936 246.445 69.96 250.627 72.008C254.808 73.9707 258.136 76.616 260.611 79.944V46.28H278.787V141H260.611V130.504C258.392 134.003 255.277 136.819 251.267 138.952C247.256 141.085 242.605 142.152 237.315 142.152C231.341 142.152 225.88 140.616 220.931 137.544C215.981 134.472 212.056 130.163 209.155 124.616C206.339 118.984 204.931 112.541 204.931 105.288ZM260.739 105.544C260.739 101.192 259.885 97.48 258.179 94.408C256.472 91.2507 254.168 88.8613 251.267 87.24C248.365 85.5333 245.251 84.68 241.923 84.68C238.595 84.68 235.523 85.4907 232.707 87.112C229.891 88.7333 227.587 91.1227 225.795 94.28C224.088 97.352 223.235 101.021 223.235 105.288C223.235 109.555 224.088 113.309 225.795 116.552C227.587 119.709 229.891 122.141 232.707 123.848C235.608 125.555 238.68 126.408 241.923 126.408C245.251 126.408 248.365 125.597 251.267 123.976C254.168 122.269 256.472 119.88 258.179 116.808C259.885 113.651 260.739 109.896 260.739 105.544ZM362.209 104.008C362.209 106.568 362.038 108.872 361.697 110.92H309.857C310.283 116.04 312.075 120.051 315.233 122.952C318.39 125.853 322.273 127.304 326.881 127.304C333.537 127.304 338.273 124.445 341.089 118.728H360.417C358.369 125.555 354.443 131.187 348.641 135.624C342.838 139.976 335.713 142.152 327.265 142.152C320.438 142.152 314.294 140.659 308.833 137.672C303.457 134.6 299.233 130.291 296.161 124.744C293.174 119.197 291.681 112.797 291.681 105.544C291.681 98.2053 293.174 91.7627 296.161 86.216C299.147 80.6693 303.329 76.4027 308.705 73.416C314.081 70.4293 320.267 68.936 327.265 68.936C334.006 68.936 340.022 70.3867 345.313 73.288C350.689 76.1893 354.827 80.328 357.729 85.704C360.715 90.9947 362.209 97.096 362.209 104.008ZM343.649 98.888C343.563 94.28 341.899 90.6107 338.657 87.88C335.414 85.064 331.446 83.656 326.753 83.656C322.315 83.656 318.561 85.0213 315.489 87.752C312.502 90.3973 310.667 94.1093 309.985 98.888H343.649ZM393.209 81.096C395.513 77.3413 398.499 74.3973 402.169 72.264C405.923 70.1307 410.19 69.064 414.969 69.064V87.88H410.233C404.601 87.88 400.334 89.2027 397.433 91.848C394.617 94.4933 393.209 99.1013 393.209 105.672V141H375.289V70.088H393.209V81.096Z" fill="white"/>
<path d="M526.275 141L516.547 131.4C508.269 138.824 498.157 142.536 486.211 142.536C479.64 142.536 473.837 141.427 468.803 139.208C463.853 136.904 460.013 133.704 457.283 129.608C454.552 125.427 453.187 120.605 453.187 115.144C453.187 109.256 454.851 103.965 458.179 99.272C461.507 94.5787 466.413 90.7813 472.899 87.88C470.595 85.064 468.931 82.376 467.907 79.816C466.883 77.1707 466.371 74.3547 466.371 71.368C466.371 67.272 467.437 63.6027 469.571 60.36C471.704 57.032 474.733 54.4293 478.659 52.552C482.669 50.6747 487.32 49.736 492.611 49.736C497.987 49.736 502.595 50.76 506.435 52.808C510.275 54.856 513.133 57.5867 515.011 61C516.888 64.4133 517.699 68.2107 517.443 72.392H500.035C500.12 69.576 499.437 67.4427 497.987 65.992C496.536 64.456 494.573 63.688 492.099 63.688C489.709 63.688 487.704 64.4133 486.083 65.864C484.547 67.2293 483.779 69.0213 483.779 71.24C483.779 73.3733 484.419 75.5067 485.699 77.64C486.979 79.688 489.069 82.248 491.971 85.32L514.499 107.592C514.669 107.421 514.797 107.251 514.883 107.08C514.968 106.909 515.053 106.739 515.139 106.568L522.435 94.408H541.123L532.163 110.152C530.456 113.48 528.621 116.637 526.659 119.624L548.291 141H526.275ZM486.723 127.688C493.72 127.688 499.907 125.213 505.283 120.264L483.267 98.504C474.989 102.173 470.851 107.379 470.851 114.12C470.851 117.96 472.301 121.203 475.203 123.848C478.104 126.408 481.944 127.688 486.723 127.688ZM584.72 96.2C586.256 87.4107 589.626 79.56 594.832 72.648C600.037 65.6507 606.437 60.232 614.032 56.392C621.626 52.4667 629.69 50.504 638.224 50.504C648.293 50.504 656.57 52.9787 663.056 57.928C669.626 62.792 673.594 69.6613 674.96 78.536H654.352C652.986 74.7813 650.682 71.9227 647.44 69.96C644.197 67.9973 640.186 67.016 635.408 67.016C630.117 67.016 625.21 68.2107 620.688 70.6C616.165 72.9893 612.368 76.4027 609.296 80.84C606.224 85.2773 604.176 90.3973 603.152 96.2C602.725 98.248 602.512 100.595 602.512 103.24C602.512 110.237 604.56 115.741 608.656 119.752C612.837 123.677 618.554 125.64 625.808 125.64C632.549 125.64 638.437 123.805 643.472 120.136C648.592 116.467 652.389 111.389 654.864 104.904H624.144L626.448 91.336H674.832L672.016 106.952C669.712 113.181 666.128 118.941 661.264 124.232C656.4 129.523 650.597 133.789 643.856 137.032C637.114 140.189 629.904 141.768 622.224 141.768C614.629 141.768 607.93 140.232 602.128 137.16C596.41 134.088 591.93 129.821 588.688 124.36C585.53 118.813 583.952 112.413 583.952 105.16C583.952 102.259 584.208 99.272 584.72 96.2ZM711.002 142.152C704.943 142.152 699.567 140.915 694.874 138.44C690.266 135.965 686.682 132.467 684.122 127.944C681.562 123.421 680.282 118.216 680.282 112.328C680.282 104.307 682.159 97.0107 685.914 90.44C689.754 83.784 694.959 78.536 701.53 74.696C708.186 70.856 715.567 68.936 723.674 68.936C729.732 68.936 735.108 70.216 739.802 72.776C744.58 75.2507 748.25 78.7493 750.81 83.272C753.455 87.7947 754.778 93 754.778 98.888C754.778 106.995 752.858 114.333 749.018 120.904C745.178 127.475 739.887 132.68 733.146 136.52C726.49 140.275 719.108 142.152 711.002 142.152ZM713.434 126.792C717.7 126.792 721.583 125.555 725.082 123.08C728.58 120.605 731.311 117.32 733.274 113.224C735.236 109.128 736.218 104.819 736.218 100.296C736.218 95.176 734.767 91.2507 731.866 88.52C729.05 85.704 725.466 84.296 721.114 84.296C716.762 84.296 712.879 85.5333 709.466 88.008C706.138 90.4827 703.535 93.8107 701.658 97.992C699.78 102.088 698.842 106.44 698.842 111.048C698.842 116.083 700.164 119.965 702.81 122.696C705.54 125.427 709.082 126.792 713.434 126.792Z" fill="#1B1B1B"/>
<path d="M592.055 157.166H740.879L718.168 183.673H569.345L592.055 157.166Z" fill="#1B1B1B"/>
</svg>
