<svg width="600" height="127" viewBox="0 0 600 127" fill="none" xmlns="http://www.w3.org/2000/svg">
<path d="M52.2324 0.114746H372.344L320.832 115.601H0.71991L52.2324 0.114746Z" fill="#1B1B1B"/>
<path d="M564.471 93.1762C559.664 93.1762 555.4 92.1946 551.676 90.2315C548.021 88.2683 545.178 85.4928 543.147 81.9049C541.116 78.3171 540.1 74.1876 540.1 69.5167C540.1 63.1533 541.59 57.3653 544.568 52.1528C547.615 46.8725 551.744 42.7092 556.957 39.663C562.237 36.6167 568.093 35.0935 574.524 35.0935C579.33 35.0935 583.595 36.1089 587.318 38.1398C591.109 40.103 594.02 42.8785 596.051 46.4663C598.149 50.0542 599.199 54.1836 599.199 58.8546C599.199 65.2857 597.675 71.1075 594.629 76.32C591.583 81.5326 587.386 85.662 582.038 88.7083C576.758 91.6869 570.902 93.1762 564.471 93.1762ZM566.4 80.991C569.785 80.991 572.865 80.0095 575.641 78.0463C578.416 76.0831 580.582 73.4768 582.139 70.2275C583.696 66.9781 584.475 63.5594 584.475 59.9716C584.475 55.9099 583.324 52.7959 581.022 50.6296C578.788 48.3957 575.945 47.2787 572.493 47.2787C569.04 47.2787 565.96 48.2603 563.252 50.2234C560.612 52.1866 558.547 54.8267 557.058 58.1438C555.569 61.3932 554.824 64.8457 554.824 68.5012C554.824 72.4952 555.874 75.5754 557.972 77.7417C560.138 79.9079 562.948 80.991 566.4 80.991Z" fill="#1B1B1B"/>
<path d="M464.29 56.7222C465.509 49.7496 468.183 43.5216 472.312 38.0383C476.442 32.4873 481.519 28.1886 487.544 25.1423C493.569 22.0283 499.966 20.4713 506.736 20.4713C514.724 20.4713 521.29 22.4345 526.435 26.3608C531.647 30.2195 534.795 35.6689 535.878 42.7093H519.53C518.447 39.7307 516.619 37.4629 514.047 35.9059C511.474 34.3489 508.293 33.5704 504.502 33.5704C500.304 33.5704 496.412 34.5181 492.824 36.4136C489.236 38.3091 486.224 41.0169 483.787 44.5371C481.35 48.0572 479.725 52.1189 478.913 56.7222C478.574 58.3469 478.405 60.2086 478.405 62.3071C478.405 67.8581 480.03 72.2245 483.279 75.4062C486.596 78.5202 491.132 80.0772 496.886 80.0772C502.234 80.0772 506.905 78.6217 510.899 75.7108C514.961 72.7999 517.973 68.772 519.936 63.6272H495.566L497.394 52.8636H535.777L533.543 65.2519C531.715 70.1936 528.872 74.7631 525.013 78.9602C521.155 83.1573 516.551 86.5421 511.203 89.1145C505.855 91.6192 500.135 92.8716 494.043 92.8716C488.018 92.8716 482.704 91.6531 478.1 89.2161C473.565 86.779 470.011 83.3943 467.438 79.0617C464.934 74.6615 463.681 69.5844 463.681 63.8303C463.681 61.5286 463.884 59.1593 464.29 56.7222Z" fill="#1B1B1B"/>
<path d="M417.926 92.2624L410.208 84.6466C403.642 90.5361 395.62 93.4809 386.143 93.4809C380.93 93.4809 376.327 92.6008 372.333 90.8408C368.406 89.013 365.36 86.4744 363.194 83.225C361.028 79.9079 359.945 76.0831 359.945 71.7506C359.945 67.0796 361.265 62.8825 363.905 59.1593C366.545 55.436 370.437 52.4236 375.582 50.1219C373.754 47.888 372.434 45.7556 371.622 43.7247C370.81 41.6262 370.403 39.3922 370.403 37.0229C370.403 33.7735 371.25 30.8626 372.942 28.2901C374.634 25.65 377.038 23.5853 380.152 22.096C383.333 20.6067 387.023 19.8621 391.22 19.8621C395.485 19.8621 399.14 20.6744 402.186 22.2991C405.233 23.9238 407.501 26.09 408.99 28.7979C410.479 31.5057 411.122 34.5181 410.919 37.8352H397.109C397.177 35.6013 396.635 33.9089 395.485 32.7581C394.334 31.5395 392.777 30.9303 390.814 30.9303C388.918 30.9303 387.327 31.5057 386.041 32.6565C384.823 33.7396 384.213 35.1612 384.213 36.9213C384.213 38.6137 384.721 40.3061 385.736 41.9985C386.752 43.6232 388.41 45.654 390.712 48.0911L408.584 65.7596C408.719 65.6242 408.821 65.4888 408.888 65.3534C408.956 65.218 409.024 65.0826 409.091 64.9472L414.879 55.3006H429.705L422.597 67.7905C421.243 70.4306 419.787 72.9353 418.23 75.3047L435.391 92.2624H417.926ZM386.549 81.7019C392.1 81.7019 397.008 79.7387 401.273 75.8124L383.807 58.55C377.241 61.4609 373.957 65.5903 373.957 70.9383C373.957 73.9846 375.108 76.557 377.41 78.6556C379.712 80.6864 382.758 81.7019 386.549 81.7019Z" fill="#1B1B1B"/>
<path d="M312.364 44.7401C314.191 41.7615 316.561 39.426 319.472 37.7337C322.45 36.0413 325.835 35.1951 329.626 35.1951V50.1219H325.869C321.401 50.1219 318.016 51.1712 315.714 53.2698C313.48 55.3683 312.364 59.0239 312.364 64.2364V92.2623H298.147V36.0074H312.364V44.7401Z" fill="#33FFB6"/>
<path d="M287.771 62.9163C287.771 64.9472 287.636 66.775 287.365 68.3997H246.24C246.578 72.4614 248 75.6431 250.505 77.9447C253.01 80.2464 256.09 81.3972 259.745 81.3972C265.025 81.3972 268.783 79.1294 271.017 74.5938H286.35C284.725 80.0094 281.611 84.4773 277.008 87.9975C272.404 91.45 266.752 93.1762 260.05 93.1762C254.634 93.1762 249.76 91.9915 245.428 89.6222C241.163 87.1852 237.812 83.7666 235.375 79.3663C233.006 74.9661 231.821 69.889 231.821 64.1349C231.821 58.3131 233.006 53.202 235.375 48.8018C237.744 44.4016 241.061 41.0169 245.326 38.6475C249.591 36.2782 254.499 35.0935 260.05 35.0935C265.398 35.0935 270.17 36.2443 274.367 38.546C278.632 40.8476 281.916 44.1308 284.217 48.3957C286.586 52.5928 287.771 57.433 287.771 62.9163ZM273.047 58.8546C272.98 55.1991 271.66 52.2882 269.087 50.1219C266.515 47.8879 263.367 46.771 259.644 46.771C256.124 46.771 253.145 47.8541 250.708 50.0204C248.339 52.1189 246.883 55.0637 246.342 58.8546H273.047Z" fill="#33FFB6"/>
<path d="M163.001 63.9318C163.001 58.2454 164.118 53.202 166.352 48.8018C168.654 44.4016 171.768 41.0169 175.694 38.6475C179.621 36.2782 183.987 35.0935 188.793 35.0935C192.449 35.0935 195.935 35.9059 199.252 37.5305C202.569 39.0875 205.21 41.1861 207.173 43.8262V17.1204H221.592V92.2623H207.173V83.9358C205.413 86.7113 202.942 88.9453 199.76 90.6376C196.578 92.33 192.889 93.1762 188.692 93.1762C183.953 93.1762 179.621 91.9577 175.694 89.5207C171.768 87.0836 168.654 83.665 166.352 79.2648C164.118 74.7969 163.001 69.6859 163.001 63.9318ZM207.274 64.1349C207.274 60.6824 206.597 57.7376 205.243 55.3006C203.89 52.7959 202.062 50.9004 199.76 49.6142C197.458 48.2603 194.988 47.5833 192.347 47.5833C189.707 47.5833 187.27 48.2264 185.036 49.5126C182.802 50.7989 180.975 52.6943 179.553 55.1991C178.199 57.6361 177.522 60.547 177.522 63.9318C177.522 67.3165 178.199 70.2952 179.553 72.8676C180.975 75.3723 182.802 77.3016 185.036 78.6555C187.338 80.0095 189.775 80.6864 192.347 80.6864C194.988 80.6864 197.458 80.0433 199.76 78.7571C202.062 77.4032 203.89 75.5077 205.243 73.0707C206.597 70.5659 207.274 67.5873 207.274 64.1349Z" fill="#33FFB6"/>
<path d="M139.82 44.7401C141.647 41.7615 144.017 39.426 146.928 37.7337C149.906 36.0413 153.291 35.1951 157.082 35.1951V50.1219H153.325C148.857 50.1219 145.472 51.1712 143.17 53.2698C140.936 55.3683 139.82 59.0239 139.82 64.2364V92.2623H125.603V36.0074H139.82V44.7401Z" fill="#33FFB6"/>
<path d="M78.7762 92.9731C72.142 92.9731 66.0494 91.4161 60.4984 88.3021C54.9474 85.1882 50.5472 80.8895 47.2978 75.4062C44.0484 69.8551 42.4237 63.5933 42.4237 56.6207C42.4237 49.7157 44.0484 43.5216 47.2978 38.0383C50.5472 32.4872 54.9474 28.1547 60.4984 25.0407C66.0494 21.9267 72.142 20.3698 78.7762 20.3698C85.478 20.3698 91.5706 21.9267 97.0539 25.0407C102.605 28.1547 106.971 32.4872 110.153 38.0383C113.402 43.5216 115.027 49.7157 115.027 56.6207C115.027 63.5933 113.402 69.8551 110.153 75.4062C106.971 80.8895 102.605 85.1882 97.0539 88.3021C91.5029 91.4161 85.4103 92.9731 78.7762 92.9731ZM78.7762 80.2802C83.041 80.2802 86.7981 79.3325 90.0475 77.437C93.2969 75.4739 95.8354 72.6983 97.6632 69.1105C99.491 65.5226 100.405 61.3594 100.405 56.6207C100.405 51.882 99.491 47.7526 97.6632 44.2324C95.8354 40.6445 93.2969 37.9029 90.0475 36.0074C86.7981 34.1119 83.041 33.1642 78.7762 33.1642C74.5114 33.1642 70.7204 34.1119 67.4033 36.0074C64.154 37.9029 61.6154 40.6445 59.7876 44.2324C57.9598 47.7526 57.0459 51.882 57.0459 56.6207C57.0459 61.3594 57.9598 65.5226 59.7876 69.1105C61.6154 72.6983 64.154 75.4739 67.4033 77.437C70.7204 79.3325 74.5114 80.2802 78.7762 80.2802Z" fill="#33FFB6"/>
<path d="M470.11 105.087H588.172L570.156 126.115H452.094L470.11 105.087Z" fill="#1B1B1B"/>
</svg>
